<mxfile host="app.diagrams.net" agent="Mozilla/5.0 (Macintosh; Intel Mac OS X 10_15_7) AppleWebKit/537.36 (KHTML, like Gecko) Chrome/140.0.0.0 Safari/537.36" version="28.2.5">
  <diagram id="osss" name="OSSS Network">
    <mxGraphModel dx="1087" dy="699" grid="1" gridSize="10" guides="1" tooltips="1" connect="1" arrows="1" fold="1" page="1" pageScale="1" pageWidth="1600" pageHeight="1200" background="light-dark(#FFFFFF,#FFFFFF)" math="0" shadow="0">
      <root>
        <mxCell id="0" />
        <mxCell id="1" parent="0" />
        <mxCell id="net" value="&lt;font style=&quot;&quot;&gt;osss-net (user-defined network)&lt;/font&gt;" style="rounded=1;whiteSpace=wrap;html=1;fillColor=#5D7F99;labelBackgroundColor=none;strokeColor=#D0CEE2;fontColor=#1A1A1A;" parent="1" vertex="1">
          <mxGeometry x="20" y="20" width="340" height="60" as="geometry" />
        </mxCell>
        <mxCell id="GKC" value="&lt;span style=&quot;&quot;&gt;Keycloak&lt;/span&gt;" style="shape=swimlane;rounded=0;html=1;whiteSpace=wrap;horizontal=1;swimlaneFillColor=#f5f7ff;swimlaneLine=#8899ff;align=center;verticalAlign=top;labelBackgroundColor=none;fillColor=#5D7F99;strokeColor=#D0CEE2;fontColor=#1A1A1A;" parent="1" vertex="1">
          <mxGeometry x="50" y="120" width="490" height="310" as="geometry" />
        </mxCell>
        <mxCell id="n_KC_DB" value="kc_postgres&#xa;5432" style="shape=cylinder3;whiteSpace=wrap;html=1;boundedLbl=1;backgroundOutline=1;size=15;labelBackgroundColor=none;fillColor=#5D7F99;strokeColor=#D0CEE2;fontColor=#1A1A1A;" parent="GKC" vertex="1">
          <mxGeometry x="40" y="70" width="110" height="80" as="geometry" />
        </mxCell>
        <mxCell id="n_KC" value="keycloak&#xa;:8080" style="rounded=1;whiteSpace=wrap;html=1;fillColor=#5D7F99;labelBackgroundColor=none;strokeColor=#D0CEE2;fontColor=#1A1A1A;" parent="GKC" vertex="1">
          <mxGeometry x="250" y="170" width="160" height="50" as="geometry" />
        </mxCell>
        <mxCell id="GAPP" value="App + Web" style="shape=swimlane;rounded=0;html=1;whiteSpace=wrap;horizontal=1;swimlaneFillColor=#f5f7ff;swimlaneLine=#8899ff;align=center;verticalAlign=top;labelBackgroundColor=none;fillColor=#5D7F99;strokeColor=#D0CEE2;fontColor=#1A1A1A;" parent="1" vertex="1">
          <mxGeometry x="620" y="480" width="490" height="310" as="geometry" />
        </mxCell>
        <mxCell id="n_REDIS" value="redis&#xa;6379" style="rounded=1;whiteSpace=wrap;html=1;fillColor=#5D7F99;labelBackgroundColor=none;strokeColor=#D0CEE2;fontColor=#1A1A1A;" parent="GAPP" vertex="1">
          <mxGeometry x="40" y="190" width="160" height="50" as="geometry" />
        </mxCell>
        <mxCell id="n_APP" value="app&#xa;8000 -&amp;gt; host:8081" style="rounded=1;whiteSpace=wrap;html=1;fillColor=#5D7F99;labelBackgroundColor=none;strokeColor=#D0CEE2;fontColor=#1A1A1A;" parent="GAPP" vertex="1">
          <mxGeometry x="280" y="70" width="160" height="50" as="geometry" />
        </mxCell>
        <mxCell id="n_WEB" value="web&#xa;3000 -&amp;gt; host:3000" style="rounded=1;whiteSpace=wrap;html=1;fillColor=#5D7F99;labelBackgroundColor=none;strokeColor=#D0CEE2;fontColor=#1A1A1A;" parent="GAPP" vertex="1">
          <mxGeometry x="90" y="70" width="160" height="50" as="geometry" />
        </mxCell>
        <mxCell id="Qai60ScQtqUj6HNR8PoT-7" value="osss_postgres&lt;br&gt;5432 -&amp;gt; host:5433" style="shape=cylinder3;whiteSpace=wrap;html=1;boundedLbl=1;backgroundOutline=1;size=15;labelBackgroundColor=none;fillColor=#5D7F99;strokeColor=#D0CEE2;fontColor=#1A1A1A;" vertex="1" parent="GAPP">
          <mxGeometry x="380" y="170" width="90" height="110" as="geometry" />
        </mxCell>
        <mxCell id="Qai60ScQtqUj6HNR8PoT-9" value="" style="endArrow=none;html=1;rounded=0;entryX=0.5;entryY=0;entryDx=0;entryDy=0;entryPerimeter=0;exitX=0.75;exitY=1;exitDx=0;exitDy=0;fontColor=default;labelBackgroundColor=none;strokeColor=#736CA8;" edge="1" parent="GAPP" source="n_APP" target="Qai60ScQtqUj6HNR8PoT-7">
          <mxGeometry width="50" height="50" relative="1" as="geometry">
            <mxPoint x="360" y="180" as="sourcePoint" />
            <mxPoint x="400" y="150" as="targetPoint" />
          </mxGeometry>
        </mxCell>
        <mxCell id="GCONSUL" value="Consul" style="shape=swimlane;rounded=0;html=1;whiteSpace=wrap;horizontal=1;swimlaneFillColor=#f5f7ff;swimlaneLine=#8899ff;align=center;verticalAlign=top;labelBackgroundColor=none;fillColor=#5D7F99;strokeColor=#D0CEE2;fontColor=#1A1A1A;" parent="1" vertex="1">
          <mxGeometry x="620" y="890" width="490" height="310" as="geometry" />
        </mxCell>
        <mxCell id="n_CONSUL" value="consul&#xa;8500, 8600" style="rounded=1;whiteSpace=wrap;html=1;fillColor=#5D7F99;labelBackgroundColor=none;strokeColor=#D0CEE2;fontColor=#1A1A1A;" parent="GCONSUL" vertex="1">
          <mxGeometry x="30" y="70" width="160" height="50" as="geometry" />
        </mxCell>
        <mxCell id="n_CONSUL_INIT" value="consul-jwt-init" style="rounded=1;whiteSpace=wrap;html=1;fillColor=#5D7F99;labelBackgroundColor=none;strokeColor=#D0CEE2;fontColor=#1A1A1A;" parent="GCONSUL" vertex="1">
          <mxGeometry x="270" y="140" width="160" height="50" as="geometry" />
        </mxCell>
        <mxCell id="e_1004" style="edgeStyle=orthogonalEdgeStyle;rounded=0;orthogonalLoop=1;jettySize=auto;html=1;fontColor=default;labelBackgroundColor=none;strokeColor=#736CA8;" parent="GCONSUL" source="n_CONSUL" target="n_CONSUL_INIT" edge="1">
          <mxGeometry relative="1" as="geometry" />
        </mxCell>
        <mxCell id="GVAULT" value="Vault" style="shape=swimlane;rounded=0;html=1;whiteSpace=wrap;horizontal=1;swimlaneFillColor=#f5f7ff;swimlaneLine=#8899ff;align=center;verticalAlign=top;labelBackgroundColor=none;fillColor=#5D7F99;strokeColor=#D0CEE2;fontColor=#1A1A1A;" parent="1" vertex="1">
          <mxGeometry x="50" y="560" width="490" height="310" as="geometry" />
        </mxCell>
        <mxCell id="n_VAULT" value="vault&#xa;8200" style="rounded=1;whiteSpace=wrap;html=1;fillColor=#5D7F99;labelBackgroundColor=none;strokeColor=#D0CEE2;fontColor=#1A1A1A;" parent="GVAULT" vertex="1">
          <mxGeometry x="20" y="80" width="160" height="50" as="geometry" />
        </mxCell>
        <mxCell id="n_VAULT_OIDC" value="vault-oidc-setup" style="rounded=1;whiteSpace=wrap;html=1;fillColor=#5D7F99;labelBackgroundColor=none;strokeColor=#D0CEE2;fontColor=#1A1A1A;" parent="GVAULT" vertex="1">
          <mxGeometry x="290" y="70" width="160" height="50" as="geometry" />
        </mxCell>
        <mxCell id="n_VAULT_SEED" value="vault-seed" style="rounded=1;whiteSpace=wrap;html=1;fillColor=#5D7F99;labelBackgroundColor=none;strokeColor=#D0CEE2;fontColor=#1A1A1A;" parent="GVAULT" vertex="1">
          <mxGeometry x="150" y="180" width="160" height="50" as="geometry" />
        </mxCell>
        <mxCell id="GELASTIC" value="Elasticsearch + Kibana + Beats" style="shape=swimlane;rounded=0;html=1;whiteSpace=wrap;horizontal=1;swimlaneFillColor=#f5f7ff;swimlaneLine=#8899ff;align=center;verticalAlign=top;labelBackgroundColor=none;fillColor=#5D7F99;strokeColor=#D0CEE2;fontColor=#1A1A1A;" parent="1" vertex="1">
          <mxGeometry x="50" y="910" width="490" height="560" as="geometry" />
        </mxCell>
        <mxCell id="n_SHARED" value="shared-vol-init" style="rounded=1;whiteSpace=wrap;html=1;fillColor=#5D7F99;labelBackgroundColor=none;strokeColor=#D0CEE2;fontColor=#1A1A1A;" parent="GELASTIC" vertex="1">
          <mxGeometry x="120" y="360" width="160" height="50" as="geometry" />
        </mxCell>
        <mxCell id="n_ES" value="elasticsearch&#xa;9200, 9300" style="rounded=1;whiteSpace=wrap;html=1;fillColor=#5D7F99;labelBackgroundColor=none;strokeColor=#D0CEE2;fontColor=#1A1A1A;" parent="GELASTIC" vertex="1">
          <mxGeometry x="20" y="270" width="160" height="50" as="geometry" />
        </mxCell>
        <mxCell id="n_ROLE_ADMIN" value="es-rolemap-kibana-admins" style="rounded=1;whiteSpace=wrap;html=1;fillColor=#5D7F99;labelBackgroundColor=none;strokeColor=#D0CEE2;fontColor=#1A1A1A;" parent="GELASTIC" vertex="1">
          <mxGeometry x="210" y="460" width="160" height="50" as="geometry" />
        </mxCell>
        <mxCell id="n_FB" value="filebeat" style="rounded=1;whiteSpace=wrap;html=1;fillColor=#5D7F99;labelBackgroundColor=none;strokeColor=#D0CEE2;fontColor=#1A1A1A;" parent="GELASTIC" vertex="1">
          <mxGeometry x="50" y="40" width="160" height="50" as="geometry" />
        </mxCell>
        <mxCell id="e_1015" style="edgeStyle=orthogonalEdgeStyle;rounded=0;orthogonalLoop=1;jettySize=auto;html=1;fontColor=default;labelBackgroundColor=none;strokeColor=#736CA8;" parent="GELASTIC" source="n_APIKEY" target="n_FB" edge="1">
          <mxGeometry relative="1" as="geometry" />
        </mxCell>
        <mxCell id="n_ROLE_USERS" value="es-rolemap-kibana-users" style="rounded=1;whiteSpace=wrap;html=1;fillColor=#5D7F99;labelBackgroundColor=none;strokeColor=#D0CEE2;fontColor=#1A1A1A;" parent="GELASTIC" vertex="1">
          <mxGeometry x="210" y="210" width="160" height="50" as="geometry" />
        </mxCell>
        <mxCell id="e_1011" style="edgeStyle=orthogonalEdgeStyle;rounded=0;orthogonalLoop=1;jettySize=auto;html=1;fontColor=default;labelBackgroundColor=none;strokeColor=#736CA8;" parent="GELASTIC" source="n_ES" target="n_ROLE_USERS" edge="1">
          <mxGeometry relative="1" as="geometry" />
        </mxCell>
        <mxCell id="n_KIB_PASS" value="kibana-pass-init" style="rounded=1;whiteSpace=wrap;html=1;fillColor=#5D7F99;labelBackgroundColor=none;strokeColor=#D0CEE2;fontColor=#1A1A1A;" parent="GELASTIC" vertex="1">
          <mxGeometry x="50" y="120" width="160" height="50" as="geometry" />
        </mxCell>
        <mxCell id="e_1008" style="edgeStyle=orthogonalEdgeStyle;rounded=0;orthogonalLoop=1;jettySize=auto;html=1;fontColor=default;labelBackgroundColor=none;strokeColor=#736CA8;" parent="GELASTIC" source="n_ES" target="n_KIB_PASS" edge="1">
          <mxGeometry relative="1" as="geometry" />
        </mxCell>
        <mxCell id="n_FB_SETUP" value="filebeat-setup" style="rounded=1;whiteSpace=wrap;html=1;fillColor=#5D7F99;labelBackgroundColor=none;strokeColor=#D0CEE2;fontColor=#1A1A1A;" parent="GELASTIC" vertex="1">
          <mxGeometry x="250" y="40" width="160" height="50" as="geometry" />
        </mxCell>
        <mxCell id="e_1013" style="edgeStyle=orthogonalEdgeStyle;rounded=0;orthogonalLoop=1;jettySize=auto;html=1;fontColor=default;labelBackgroundColor=none;strokeColor=#736CA8;" parent="GELASTIC" source="n_ES" target="n_FB_SETUP" edge="1">
          <mxGeometry relative="1" as="geometry" />
        </mxCell>
        <mxCell id="n_KIB" value="kibana&#xa;5601" style="rounded=1;whiteSpace=wrap;html=1;fillColor=#5D7F99;labelBackgroundColor=none;strokeColor=#D0CEE2;fontColor=#1A1A1A;" parent="GELASTIC" vertex="1">
          <mxGeometry x="320" y="350" width="160" height="50" as="geometry" />
        </mxCell>
        <mxCell id="e_1009" style="edgeStyle=orthogonalEdgeStyle;rounded=0;orthogonalLoop=1;jettySize=auto;html=1;fontColor=default;labelBackgroundColor=none;strokeColor=#736CA8;" parent="GELASTIC" source="n_KIB_PASS" target="n_KIB" edge="1">
          <mxGeometry relative="1" as="geometry" />
        </mxCell>
        <mxCell id="e_1014" style="edgeStyle=orthogonalEdgeStyle;rounded=0;orthogonalLoop=1;jettySize=auto;html=1;fontColor=default;labelBackgroundColor=none;strokeColor=#736CA8;" parent="GELASTIC" source="n_KIB" target="n_FB_SETUP" edge="1">
          <mxGeometry relative="1" as="geometry" />
        </mxCell>
        <mxCell id="e_1000" style="edgeStyle=orthogonalEdgeStyle;rounded=0;orthogonalLoop=1;jettySize=auto;html=1;fontColor=default;labelBackgroundColor=none;strokeColor=#736CA8;" parent="1" source="n_KC_DB" target="n_KC" edge="1">
          <mxGeometry relative="1" as="geometry" />
        </mxCell>
        <mxCell id="e_1002" style="edgeStyle=orthogonalEdgeStyle;rounded=0;orthogonalLoop=1;jettySize=auto;html=1;fontColor=default;labelBackgroundColor=none;strokeColor=#736CA8;" parent="1" source="n_REDIS" target="n_APP" edge="1">
          <mxGeometry relative="1" as="geometry" />
        </mxCell>
        <mxCell id="e_1003" style="edgeStyle=orthogonalEdgeStyle;rounded=0;orthogonalLoop=1;jettySize=auto;html=1;fontColor=default;labelBackgroundColor=none;strokeColor=#736CA8;" parent="1" source="n_APP" target="n_WEB" edge="1">
          <mxGeometry relative="1" as="geometry" />
        </mxCell>
        <mxCell id="e_1005" style="edgeStyle=orthogonalEdgeStyle;rounded=0;orthogonalLoop=1;jettySize=auto;html=1;fontColor=default;labelBackgroundColor=none;strokeColor=#736CA8;" parent="1" source="n_VAULT" target="n_VAULT_OIDC" edge="1">
          <mxGeometry relative="1" as="geometry" />
        </mxCell>
        <mxCell id="e_1006" style="edgeStyle=orthogonalEdgeStyle;rounded=0;orthogonalLoop=1;jettySize=auto;html=1;fontColor=default;labelBackgroundColor=none;strokeColor=#736CA8;" parent="1" source="n_VAULT" target="n_VAULT_SEED" edge="1">
          <mxGeometry relative="1" as="geometry" />
        </mxCell>
        <mxCell id="e_1007" style="edgeStyle=orthogonalEdgeStyle;rounded=0;orthogonalLoop=1;jettySize=auto;html=1;fontColor=default;labelBackgroundColor=none;strokeColor=#736CA8;" parent="1" source="n_SHARED" target="n_APIKEY" edge="1">
          <mxGeometry relative="1" as="geometry" />
        </mxCell>
        <mxCell id="e_1010" style="edgeStyle=orthogonalEdgeStyle;rounded=0;orthogonalLoop=1;jettySize=auto;html=1;fontColor=default;labelBackgroundColor=none;strokeColor=#736CA8;" parent="1" source="n_ES" target="n_ROLE_ADMIN" edge="1">
          <mxGeometry relative="1" as="geometry" />
        </mxCell>
        <mxCell id="e_1012" style="edgeStyle=orthogonalEdgeStyle;rounded=0;orthogonalLoop=1;jettySize=auto;html=1;fontColor=default;labelBackgroundColor=none;strokeColor=#736CA8;" parent="1" source="n_ES" target="n_APIKEY" edge="1">
          <mxGeometry relative="1" as="geometry" />
        </mxCell>
        <mxCell id="e_1024" style="edgeStyle=orthogonalEdgeStyle;rounded=1;html=1;fontColor=default;labelBackgroundColor=none;strokeColor=#736CA8;" parent="1" source="n_KC" target="n_VAULT" edge="1">
          <mxGeometry relative="1" as="geometry" />
        </mxCell>
        <mxCell id="e_1025" style="edgeStyle=orthogonalEdgeStyle;rounded=1;html=1;fontColor=default;labelBackgroundColor=none;strokeColor=#736CA8;" parent="1" source="n_KC" target="n_TRINO" edge="1">
          <mxGeometry relative="1" as="geometry" />
        </mxCell>
        <mxCell id="e_1026" style="edgeStyle=orthogonalEdgeStyle;rounded=1;html=1;fontColor=default;labelBackgroundColor=none;strokeColor=#736CA8;" parent="1" source="n_ES" target="n_OM_SRV" edge="1">
          <mxGeometry relative="1" as="geometry" />
        </mxCell>
        <mxCell id="Qai60ScQtqUj6HNR8PoT-10" style="edgeStyle=orthogonalEdgeStyle;rounded=1;html=1;entryX=0;entryY=0.5;entryDx=0;entryDy=0;exitX=1;exitY=0.75;exitDx=0;exitDy=0;fontColor=default;labelBackgroundColor=none;strokeColor=#736CA8;" edge="1" parent="1" source="n_KC" target="n_WEB">
          <mxGeometry relative="1" as="geometry">
            <mxPoint x="470" y="345" as="sourcePoint" />
            <mxPoint x="2360" y="560" as="targetPoint" />
          </mxGeometry>
        </mxCell>
        <mxCell id="Qai60ScQtqUj6HNR8PoT-11" style="edgeStyle=orthogonalEdgeStyle;rounded=1;html=1;entryX=0;entryY=0.25;entryDx=0;entryDy=0;exitX=1;exitY=0.75;exitDx=0;exitDy=0;fontColor=default;labelBackgroundColor=none;strokeColor=#736CA8;" edge="1" parent="1" source="n_KC" target="n_CONSUL">
          <mxGeometry relative="1" as="geometry">
            <mxPoint x="480" y="355" as="sourcePoint" />
            <mxPoint x="930" y="195" as="targetPoint" />
          </mxGeometry>
        </mxCell>
        <mxCell id="Qai60ScQtqUj6HNR8PoT-12" style="edgeStyle=orthogonalEdgeStyle;rounded=1;html=1;entryX=0.75;entryY=0;entryDx=0;entryDy=0;exitX=1;exitY=0.75;exitDx=0;exitDy=0;fontColor=default;labelBackgroundColor=none;strokeColor=#736CA8;" edge="1" parent="1" target="n_VAULT">
          <mxGeometry relative="1" as="geometry">
            <mxPoint x="470" y="358" as="sourcePoint" />
            <mxPoint x="930" y="195" as="targetPoint" />
          </mxGeometry>
        </mxCell>
        <mxCell id="Qai60ScQtqUj6HNR8PoT-13" style="edgeStyle=orthogonalEdgeStyle;rounded=1;html=1;entryX=0.5;entryY=0;entryDx=0;entryDy=0;exitX=1;exitY=0.75;exitDx=0;exitDy=0;fontColor=default;labelBackgroundColor=none;strokeColor=#736CA8;" edge="1" parent="1" target="n_SS">
          <mxGeometry relative="1" as="geometry">
            <mxPoint x="480" y="368" as="sourcePoint" />
            <mxPoint x="200" y="690" as="targetPoint" />
          </mxGeometry>
        </mxCell>
        <mxCell id="Qai60ScQtqUj6HNR8PoT-14" style="edgeStyle=orthogonalEdgeStyle;rounded=1;html=1;exitX=1;exitY=0.75;exitDx=0;exitDy=0;fontColor=default;labelBackgroundColor=none;strokeColor=#736CA8;" edge="1" parent="1" target="n_KIB">
          <mxGeometry relative="1" as="geometry">
            <mxPoint x="490" y="378" as="sourcePoint" />
            <mxPoint x="1140" y="585" as="targetPoint" />
          </mxGeometry>
        </mxCell>
        <mxCell id="Qai60ScQtqUj6HNR8PoT-15" style="edgeStyle=orthogonalEdgeStyle;rounded=1;html=1;exitX=1;exitY=0.75;exitDx=0;exitDy=0;entryX=0.75;entryY=0;entryDx=0;entryDy=0;fontColor=default;labelBackgroundColor=none;strokeColor=#736CA8;" edge="1" parent="1" target="n_AF_WEB">
          <mxGeometry relative="1" as="geometry">
            <mxPoint x="500" y="388" as="sourcePoint" />
            <mxPoint x="1150" y="1140" as="targetPoint" />
          </mxGeometry>
        </mxCell>
        <mxCell id="Qai60ScQtqUj6HNR8PoT-16" style="edgeStyle=orthogonalEdgeStyle;rounded=1;html=1;exitX=1;exitY=0.75;exitDx=0;exitDy=0;entryX=0.75;entryY=0;entryDx=0;entryDy=0;fontColor=default;labelBackgroundColor=none;strokeColor=#736CA8;" edge="1" parent="1" target="n_OM_SRV">
          <mxGeometry relative="1" as="geometry">
            <mxPoint x="510" y="398" as="sourcePoint" />
            <mxPoint x="1940" y="1330" as="targetPoint" />
          </mxGeometry>
        </mxCell>
        <mxCell id="Qai60ScQtqUj6HNR8PoT-17" value="Datalake" style="shape=swimlane;rounded=0;html=1;whiteSpace=wrap;horizontal=1;swimlaneFillColor=#f5f7ff;swimlaneLine=#8899ff;align=center;verticalAlign=top;labelBackgroundColor=none;fillColor=#5D7F99;strokeColor=#D0CEE2;fontColor=#1A1A1A;" vertex="1" parent="1">
          <mxGeometry x="1160" y="120" width="1190" height="790" as="geometry" />
        </mxCell>
        <mxCell id="GTRINO" value="Trino" style="shape=swimlane;rounded=0;html=1;whiteSpace=wrap;horizontal=1;swimlaneFillColor=#f5f7ff;swimlaneLine=#8899ff;align=center;verticalAlign=top;labelBackgroundColor=none;fillColor=#5D7F99;strokeColor=#D0CEE2;fontColor=#1A1A1A;" parent="Qai60ScQtqUj6HNR8PoT-17" vertex="1">
          <mxGeometry x="50" y="70" width="490" height="310" as="geometry" />
        </mxCell>
        <mxCell id="n_TRINO" value="trino&#xa;8443 -&amp;gt; host:8444" style="rounded=1;whiteSpace=wrap;html=1;fillColor=#5D7F99;labelBackgroundColor=none;strokeColor=#D0CEE2;fontColor=#1A1A1A;" parent="GTRINO" vertex="1">
          <mxGeometry x="110" y="120" width="160" height="50" as="geometry" />
        </mxCell>
        <mxCell id="GSS" value="Superset" style="shape=swimlane;rounded=0;html=1;whiteSpace=wrap;horizontal=1;swimlaneFillColor=#f5f7ff;swimlaneLine=#8899ff;align=center;verticalAlign=top;labelBackgroundColor=none;fillColor=#5D7F99;strokeColor=#D0CEE2;fontColor=#1A1A1A;" parent="Qai60ScQtqUj6HNR8PoT-17" vertex="1">
          <mxGeometry x="640" y="70" width="490" height="310" as="geometry" />
        </mxCell>
        <mxCell id="n_SS_PG" value="postgres-superset&#xa;5432 -&amp;gt; host:5434" style="rounded=1;whiteSpace=wrap;html=1;fillColor=#5D7F99;labelBackgroundColor=none;strokeColor=#D0CEE2;fontColor=#1A1A1A;" parent="GSS" vertex="1">
          <mxGeometry x="320" y="220" width="160" height="50" as="geometry" />
        </mxCell>
        <mxCell id="n_SS_REDIS" value="superset_redis&#xa;6379 -&amp;gt; host:6380" style="rounded=1;whiteSpace=wrap;html=1;fillColor=#5D7F99;labelBackgroundColor=none;strokeColor=#D0CEE2;fontColor=#1A1A1A;" parent="GSS" vertex="1">
          <mxGeometry x="310" y="120" width="160" height="50" as="geometry" />
        </mxCell>
        <mxCell id="n_SS" value="superset&#xa;8088" style="rounded=1;whiteSpace=wrap;html=1;fillColor=#5D7F99;labelBackgroundColor=none;strokeColor=#D0CEE2;fontColor=#1A1A1A;" parent="GSS" vertex="1">
          <mxGeometry x="70" y="105" width="160" height="50" as="geometry" />
        </mxCell>
        <mxCell id="e_1018" style="edgeStyle=orthogonalEdgeStyle;rounded=0;orthogonalLoop=1;jettySize=auto;html=1;fontColor=default;labelBackgroundColor=none;strokeColor=#736CA8;" parent="GSS" source="n_SS_REDIS" target="n_SS" edge="1">
          <mxGeometry relative="1" as="geometry" />
        </mxCell>
        <mxCell id="n_SS_INIT" value="superset-init" style="rounded=1;whiteSpace=wrap;html=1;fillColor=#5D7F99;labelBackgroundColor=none;strokeColor=#D0CEE2;fontColor=#1A1A1A;" parent="GSS" vertex="1">
          <mxGeometry x="100" y="220" width="160" height="50" as="geometry" />
        </mxCell>
        <mxCell id="e_1016" style="edgeStyle=orthogonalEdgeStyle;rounded=0;orthogonalLoop=1;jettySize=auto;html=1;fontColor=default;labelBackgroundColor=none;strokeColor=#736CA8;" parent="GSS" source="n_SS_PG" target="n_SS_INIT" edge="1">
          <mxGeometry relative="1" as="geometry" />
        </mxCell>
        <mxCell id="e_1017" style="edgeStyle=orthogonalEdgeStyle;rounded=0;orthogonalLoop=1;jettySize=auto;html=1;fontColor=default;labelBackgroundColor=none;strokeColor=#736CA8;" parent="GSS" source="n_SS_INIT" target="n_SS" edge="1">
          <mxGeometry relative="1" as="geometry" />
        </mxCell>
        <mxCell id="GAIR" value="Airflow" style="shape=swimlane;rounded=0;html=1;whiteSpace=wrap;horizontal=1;swimlaneFillColor=#f5f7ff;swimlaneLine=#8899ff;align=center;verticalAlign=top;labelBackgroundColor=none;fillColor=#5D7F99;strokeColor=#D0CEE2;fontColor=#1A1A1A;" parent="Qai60ScQtqUj6HNR8PoT-17" vertex="1">
          <mxGeometry x="40" y="410" width="570" height="310" as="geometry" />
        </mxCell>
        <mxCell id="n_AF_PG" value="postgres-airflow&#xa;5432 -&amp;gt; host:5435" style="shape=cylinder3;whiteSpace=wrap;html=1;boundedLbl=1;backgroundOutline=1;size=15;labelBackgroundColor=none;fillColor=#5D7F99;strokeColor=#D0CEE2;fontColor=#1A1A1A;" parent="GAIR" vertex="1">
          <mxGeometry x="20" y="210" width="130" height="80" as="geometry" />
        </mxCell>
        <mxCell id="n_AF_INIT" value="airflow-init" style="rounded=1;whiteSpace=wrap;html=1;fillColor=#5D7F99;labelBackgroundColor=none;strokeColor=#D0CEE2;fontColor=#1A1A1A;" parent="GAIR" vertex="1">
          <mxGeometry x="140" y="60" width="160" height="50" as="geometry" />
        </mxCell>
        <mxCell id="n_AF_WEB" value="airflow-webserver&#xa;8080 -&amp;gt; host:8083" style="rounded=1;whiteSpace=wrap;html=1;fillColor=#5D7F99;labelBackgroundColor=none;strokeColor=#D0CEE2;fontColor=#1A1A1A;" parent="GAIR" vertex="1">
          <mxGeometry x="370" y="210" width="160" height="50" as="geometry" />
        </mxCell>
        <mxCell id="n_AF_SCHED" value="airflow-scheduler" style="rounded=1;whiteSpace=wrap;html=1;fillColor=#5D7F99;labelBackgroundColor=none;strokeColor=#D0CEE2;fontColor=#1A1A1A;" parent="GAIR" vertex="1">
          <mxGeometry x="190" y="210" width="160" height="50" as="geometry" />
        </mxCell>
        <mxCell id="e_1019" style="edgeStyle=orthogonalEdgeStyle;rounded=0;orthogonalLoop=1;jettySize=auto;html=1;fontColor=default;labelBackgroundColor=none;strokeColor=#736CA8;" parent="GAIR" source="n_AF_PG" target="n_AF_INIT" edge="1">
          <mxGeometry relative="1" as="geometry" />
        </mxCell>
        <mxCell id="e_1020" style="edgeStyle=orthogonalEdgeStyle;rounded=0;orthogonalLoop=1;jettySize=auto;html=1;fontColor=default;labelBackgroundColor=none;strokeColor=#736CA8;" parent="GAIR" source="n_AF_INIT" target="n_AF_WEB" edge="1">
          <mxGeometry relative="1" as="geometry" />
        </mxCell>
        <mxCell id="e_1021" style="edgeStyle=orthogonalEdgeStyle;rounded=0;orthogonalLoop=1;jettySize=auto;html=1;fontColor=default;labelBackgroundColor=none;strokeColor=#736CA8;" parent="GAIR" source="n_AF_INIT" target="n_AF_SCHED" edge="1">
          <mxGeometry relative="1" as="geometry" />
        </mxCell>
        <mxCell id="GOM" value="OpenMetadata" style="shape=swimlane;rounded=0;html=1;whiteSpace=wrap;horizontal=1;swimlaneFillColor=#f5f7ff;swimlaneLine=#8899ff;align=center;verticalAlign=top;labelBackgroundColor=none;fillColor=#5D7F99;strokeColor=#D0CEE2;fontColor=#1A1A1A;" parent="Qai60ScQtqUj6HNR8PoT-17" vertex="1">
          <mxGeometry x="650" y="420" width="490" height="310" as="geometry" />
        </mxCell>
        <mxCell id="n_OM_DB" value="mysql&#xa;3306" style="shape=cylinder3;whiteSpace=wrap;html=1;boundedLbl=1;backgroundOutline=1;size=15;labelBackgroundColor=none;fillColor=#5D7F99;strokeColor=#D0CEE2;fontColor=#1A1A1A;" parent="GOM" vertex="1">
          <mxGeometry x="30" y="100" width="110" height="70" as="geometry" />
        </mxCell>
        <mxCell id="n_OM_SRV" value="openmetadata-server&#xa;8585" style="rounded=1;whiteSpace=wrap;html=1;fillColor=#5D7F99;labelBackgroundColor=none;strokeColor=#D0CEE2;fontColor=#1A1A1A;" parent="GOM" vertex="1">
          <mxGeometry x="250" y="200" width="160" height="50" as="geometry" />
        </mxCell>
        <mxCell id="n_OM_ING" value="openmetadata-ingestion&#xa;8080" style="rounded=1;whiteSpace=wrap;html=1;fillColor=#5D7F99;labelBackgroundColor=none;strokeColor=#D0CEE2;fontColor=#1A1A1A;" parent="GOM" vertex="1">
          <mxGeometry x="60" y="210" width="160" height="50" as="geometry" />
        </mxCell>
        <mxCell id="e_1022" style="edgeStyle=orthogonalEdgeStyle;rounded=0;orthogonalLoop=1;jettySize=auto;html=1;fontColor=default;labelBackgroundColor=none;strokeColor=#736CA8;" parent="GOM" source="n_OM_DB" target="n_OM_SRV" edge="1">
          <mxGeometry relative="1" as="geometry" />
        </mxCell>
        <mxCell id="e_1023" style="edgeStyle=orthogonalEdgeStyle;rounded=0;orthogonalLoop=1;jettySize=auto;html=1;fontColor=default;labelBackgroundColor=none;strokeColor=#736CA8;" parent="GOM" source="n_OM_DB" target="n_OM_ING" edge="1">
          <mxGeometry relative="1" as="geometry" />
        </mxCell>
      </root>
    </mxGraphModel>
  </diagram>
</mxfile>
